<?xml version="1.0" encoding="iso-8859-1"?>
<!DOCTYPE svg PUBLIC "-//W3C//DTD SVG 1.1//EN" "http://www.w3.org/Graphics/SVG/1.1/DTD/svg11.dtd">
<svg 
 version="1.1" xmlns="http://www.w3.org/2000/svg" xmlns:xlink="http://www.w3.org/1999/xlink" x="0px" y="0px" width="512px"
	 height="512px" viewBox="0 0 512 512" style="enable-background:new 0 0 512 512;" xml:space="preserve"
><g id="afcae5a789ccd549f9c6e2a2f8078a6d"><g></g><g fill="#ffffff"><path style="display: inline;" d="M163.91,511.5L163.91,511.5c-13.89,0-30.109-10.17-30.109-38.838V363.366
		C80.737,356.478,39.338,310.589,39.338,256c0-54.588,41.399-100.478,94.463-107.366V39.338c0-28.664,16.22-38.838,30.109-38.838
		c8.798,0,17.961,3.691,27.223,10.969l261.318,205.322c12.844,10.101,20.211,24.391,20.211,39.218
		c0,14.828-7.372,29.107-20.216,39.198L191.138,500.531C181.876,507.81,172.708,511.5,163.91,511.5z M163.91,24.575
		c-5.867,0-6.034,13.253-6.034,14.764v132.27l-11.813,0.227c-45.573,0.858-82.65,38.616-82.65,84.165s37.077,83.307,82.65,84.165
		l11.813,0.227v132.271c0,1.51,0.167,14.764,6.034,14.764c1.485,0,5.66-0.563,12.351-5.823L437.574,276.28
		c7.105-5.581,11.013-12.78,11.013-20.275s-3.907-14.704-11.013-20.285L176.261,30.397C169.57,25.142,165.396,24.575,163.91,24.575z
		"></path></g></g></svg>